Coordinates
version=1
nRows=29
nColumns=24
inDegrees=yes

Units are S.I. units (second, meters, Newtons, ...)
Angles are in degrees.

endheader
time	pelvis_tilt	pelvis_list	pelvis_rotation	pelvis_tx	pelvis_ty	pelvis_tz	hip_flexion_r	hip_adduction_r	hip_rotation_r	knee_angle_r	ankle_angle_r	subtalar_angle_r	mtp_angle_r	hip_flexion_l	hip_adduction_l	hip_rotation_l	knee_angle_l	ankle_angle_l	subtalar_angle_l	mtp_angle_l	lumbar_extension	lumbar_bending	lumbar_rotation
      4.69500000	     13.59817761	      8.02189057	      3.81897594	      0.84470302	      0.76180416	     -0.24671430	     13.09311521	    -11.77731189	     -9.64940008	    -56.43334410	     18.63714154	     -2.45815433	      0.00000000	    -12.78927601	     11.55083242	      7.87230010	    -12.23675349	     24.76584385	      3.43560866	      0.00000000	    -36.02759175	     -3.12125022	    -12.57995683
      4.70000000	     13.65814606	      8.25947291	      4.23018271	      0.85190391	      0.76149649	     -0.24670551	     13.52753119	    -12.14429957	    -10.01999539	    -55.01613617	     18.89289115	     -1.85440950	      0.00000000	    -13.76159268	     11.53049243	      7.94001024	    -11.75880417	     25.16366064	      4.09670645	      0.00000000	    -36.13892440	     -3.16943121	    -13.28190762
      4.70500000	     13.74846512	      8.47329336	      4.61266972	      0.85910381	      0.76112222	     -0.24664455	     13.89291021	    -12.46621476	    -10.33370469	    -53.51802209	     19.10491925	     -1.22307635	      0.00000000	    -14.75262465	     11.47434886	      7.96500494	    -11.30351962	     25.61281978	      4.79996829	      0.00000000	    -36.29319616	     -3.20697540	    -13.91387740
      4.71000000	     13.80843531	      8.72760459	      4.99406184	      0.86628572	      0.76062250	     -0.24656738	     14.26373249	    -12.83327793	    -10.61878021	    -51.97523008	     19.28599395	     -0.66105846	      0.00000000	    -15.69836187	     11.45365933	      7.97079429	    -10.87894723	     26.03052600	      5.49115662	      0.00000000	    -36.43165451	     -3.29059457	    -14.55454183
      4.71500000	     13.83664594	      9.03246462	      5.37211637	      0.87343157	      0.75999485	     -0.24646849	     14.64528856	    -13.25340737	    -10.86166173	    -50.39687913	     19.43727042	     -0.15537007	      0.00000000	    -16.58775543	     11.48464034	      7.98230226	    -10.50855002	     26.41691626	      6.12737386	      0.00000000	    -36.55809214	     -3.43074916	    -15.22306691
      4.72000000	     13.87798981	      9.29659205	      5.73877947	      0.88058572	      0.75930362	     -0.24633328	     14.96605761	    -13.61510616	    -11.06620927	    -48.74106114	     19.57992291	      0.46443266	      0.00000000	    -17.47274461	     11.46560788	      7.99385253	    -10.17138804	     26.86263213	      6.76913533	      0.00000000	    -36.70651071	     -3.53766320	    -15.81034967
      4.72500000	     13.93686051	      9.54114653	      6.06434080	      0.88773075	      0.75854938	     -0.24617033	     15.23795319	    -13.93770399	    -11.20457815	    -47.02128980	     19.69401231	      1.12454126	      0.00000000	    -18.34952762	     11.43312565	      7.98257858	     -9.88047149	     27.32831503	      7.39177733	      0.00000000	    -36.88029497	     -3.63477096	    -16.32942965
      4.73000000	     13.94568931	      9.83618814	      6.41499756	      0.89484985	      0.75767053	     -0.24600191	     15.52994494	    -14.31997994	    -11.32506397	    -45.28314601	     19.80549103	      1.77481485	      0.00000000	    -19.15034961	     11.44892569	      8.00444972	     -9.65086734	     27.77186380	      7.94194313	      0.00000000	    -37.02245421	     -3.77962323	    -16.88456009
      4.73500000	     13.92677508	     10.12604302	      6.74500433	      0.90195941	      0.75669884	     -0.24579048	     15.82276999	    -14.68776434	    -11.40158066	    -43.50523334	     19.90670943	      2.47642372	      0.00000000	    -19.89394375	     11.46885675	      8.06661761	     -9.47518498	     28.22876742	      8.42608141	      0.00000000	    -37.14584261	     -3.93922186	    -17.39912237
      4.74000000	     13.90679019	     10.39784357	      7.07936979	      0.90906790	      0.75567571	     -0.24558993	     16.06731363	    -15.03371473	    -11.46093302	    -41.68027980	     20.01170449	      3.30509677	      0.00000000	    -20.60001419	     11.46987538	      8.12015233	     -9.37428736	     28.70282450	      8.86453629	      0.00000000	    -37.27407489	     -4.07052399	    -17.87780990
      4.74500000	     13.85287132	     10.67668181	      7.40483735	      0.91616150	      0.75455998	     -0.24535773	     16.32101092	    -15.37751138	    -11.47010144	    -39.84019650	     20.09927904	      4.15876947	      0.00000000	    -21.23747261	     11.48770759	      8.23732582	     -9.34345879	     29.21205440	      9.24373073	      0.00000000	    -37.37779053	     -4.22314992	    -18.30889843
      4.75000000	     13.78780036	     10.94307698	      7.75061118	      0.92327528	      0.75340672	     -0.24514929	     16.53038692	    -15.71912549	    -11.50737683	    -37.97325203	     20.20783817	      5.15429235	      0.00000000	    -21.82729768	     11.48786188	      8.32443244	     -9.39002487	     29.69640534	      9.57512034	      0.00000000	    -37.47049056	     -4.34669455	    -18.75876998
      4.75500000	     13.70221579	     11.21215696	      8.11054798	      0.93040535	      0.75221255	     -0.24491528	     16.71470800	    -16.06100699	    -11.54042379	    -36.09691649	     20.32449949	      6.22351834	      0.00000000	    -22.36862869	     11.48552525	      8.44220481	     -9.49742320	     30.15917800	      9.86411645	      0.00000000	    -37.54847868	     -4.47756373	    -19.19107158
      4.76000000	     13.58925496	     11.46716968	      8.47247891	      0.93754742	      0.75095938	     -0.24468721	     16.89301861	    -16.39077810	    -11.56901573	    -34.22837964	     20.43117235	      7.35879932	      0.00000000	    -22.83617558	     11.47770830	      8.60476171	     -9.70155401	     30.65962738	     10.10564481	      0.00000000	    -37.59547710	     -4.59487033	    -19.58811645
      4.76500000	     13.45546018	     11.71462194	      8.85391944	      0.94471319	      0.74967317	     -0.24446231	     17.05003987	    -16.71855374	    -11.61483569	    -32.37984741	     20.53940123	      8.56839889	      0.00000000	    -23.24274307	     11.45944279	      8.79029332	     -9.99279760	     31.16882711	     10.31243045	      0.00000000	    -37.62007262	     -4.69995316	    -19.97354052
      4.77000000	     13.29767211	     11.93181065	      9.23374508	      0.95191261	      0.74835868	     -0.24419937	     17.19843066	    -17.00563556	    -11.65245738	    -30.55434928	     20.62715378	      9.78370236	      0.00000000	    -23.57435035	     11.41654729	      8.99151847	    -10.38111014	     31.68699288	     10.48438928	      0.00000000	    -37.61150648	     -4.78886347	    -20.32362914
      4.77500000	     13.12714405	     12.14974487	      9.66549237	      0.95916994	      0.74704072	     -0.24401056	     17.30483106	    -17.32060539	    -11.76776892	    -28.78565707	     20.73652329	     11.09617543	      0.00000000	    -23.86266957	     11.35811688	      9.21086318	    -10.85233228	     32.19669953	     10.65827337	      0.00000000	    -37.57945896	     -4.84565372	    -20.67626331
      4.78000000	     12.94391435	     12.32772171	     10.09276206	      0.96647473	      0.74571585	     -0.24377824	     17.39665371	    -17.58217393	    -11.87675768	    -27.07041131	     20.81732139	     12.36895755	      0.00000000	    -24.08381515	     11.26381083	      9.44199095	    -11.42529704	     32.71129995	     10.80507280	      0.00000000	    -37.52166806	     -4.87978350	    -20.98690002
      4.78500000	     12.77036549	     12.50370229	     10.52723199	      0.97383483	      0.74440776	     -0.24353607	     17.45030368	    -17.84321344	    -12.01534942	    -25.44620596	     20.90508456	     13.64485892	      0.00000000	    -24.27521638	     11.16055196	      9.67755180	    -12.09012400	     33.21401485	     10.94385320	      0.00000000	    -37.46236248	     -4.90574680	    -21.31626850
      4.79000000	     12.58312302	     12.62318675	     10.97692375	      0.98127350	      0.74311227	     -0.24328700	     17.48590171	    -18.04002182	    -12.16802966	    -23.90364430	     20.95940026	     14.83435862	      0.00000000	    -24.39568166	     10.99770347	      9.91609857	    -12.85955508	     33.70805639	     11.09691264	      0.00000000	    -37.36334487	     -4.88062682	    -21.56866177
      4.79500000	     12.38562867	     12.66525705	     11.42212934	      0.98881280	      0.74183530	     -0.24299755	     17.51098312	    -18.13791425	    -12.30742022	    -22.45266345	     20.95732820	     15.85818168	      0.00000000	    -24.44446821	     10.76127396	     10.14445274	    -13.72860289	     34.17914318	     11.25935205	      0.00000000	    -37.21638239	     -4.79906559	    -21.72418301
      4.80000000	     12.21326124	     12.70399893	     11.87409737	      0.99641849	      0.74059746	     -0.24269965	     17.49525308	    -18.23247812	    -12.46627301	    -21.14832915	     20.96498953	     16.82703796	      0.00000000	    -24.47340653	     10.50886261	     10.35180440	    -14.69580629	     34.62828992	     11.45133337	      0.00000000	    -37.08180834	     -4.70524813	    -21.89987879
      4.80500000	     12.06302266	     12.70759343	     12.30906859	      1.00411590	      0.73940365	     -0.24238656	     17.44856168	    -18.27707877	    -12.61257487	    -19.98243261	     20.95126679	     17.66147005	      0.00000000	    -24.47270085	     10.22226130	     10.52846235	    -15.75977436	     35.04163981	     11.65598471	      0.00000000	    -36.94115080	     -4.58021641	    -22.03259869
      4.81000000	     11.92460336	     12.62223510	     12.71308327	      1.01192074	      0.73824268	     -0.24203291	     17.39754025	    -18.20237777	    -12.70195152	    -18.96286186	     20.86110479	     18.24883238	      0.00000000	    -24.41774790	      9.86129445	     10.70206875	    -16.92121555	     35.39175274	     11.84266514	      0.00000000	    -36.76858544	     -4.39013675	    -22.02277031
      4.81500000	     11.81358642	     12.50444582	     13.10321769	      1.01982087	      0.73713093	     -0.24162202	     17.31796510	    -18.07768085	    -12.78070837	    -18.10794916	     20.74453726	     18.68591746	      0.00000000	    -24.33150609	      9.45982993	     10.81983358	    -18.18599286	     35.70344847	     12.06712860	      0.00000000	    -36.59784363	     -4.18279459	    -21.99464301
      4.82000000	     11.73134608	     12.34189761	     13.47436809	      1.02782055	      0.73606936	     -0.24119959	     17.21651925	    -17.89227336	    -12.83303639	    -17.43205314	     20.59659990	     18.94711427	      0.00000000	    -24.21126620	      9.01115927	     10.88811395	    -19.55624379	     35.93225266	     12.36913605	      0.00000000	    -36.42001091	     -3.93016434	    -21.92284723
      4.82500000	     11.67910549	     12.12651795	     13.80233177	      1.03591936	      0.73505073	     -0.24072921	     17.10423337	    -17.62558548	    -12.83407234	    -16.93027246	     20.38491048	     18.97479145	      0.00000000	    -24.05201402	      8.51692470	     10.87469200	    -21.03406416	     36.10429563	     12.70946452	      0.00000000	    -36.23840124	     -3.64426348	    -21.76745430
      4.83000000	     11.66463419	     11.83460775	     14.04909345	      1.04413448	      0.73407520	     -0.24020849	     17.00901920	    -17.25519039	    -12.78912746	    -16.64455148	     20.08324172	     18.91703642	      0.00000000	    -23.88402225	      7.98710602	     10.87239831	    -22.56623741	     36.12586041	     12.85168769	      0.00000000	    -36.05249658	     -3.31943694	    -21.46477965
      4.83500000	     11.66700165	     11.51180477	     14.30294752	      1.05239729	      0.73313407	     -0.23959863	     16.89413926	    -16.81290151	    -12.60520128	    -16.50908450	     19.74208103	     18.37632944	      0.00000000	    -23.62297136	      7.38144640	     10.67177195	    -24.27730326	     36.13007760	     13.41718188	      0.00000000	    -35.86555822	     -2.96464221	    -21.18886025
